<svg id="圖層_1" data-name="圖層 1" xmlns="http://www.w3.org/2000/svg" viewBox="0 0 43.47 53.8"><defs><style>.cls-1{fill:#221f20;}</style></defs><title>toggle</title><path class="cls-1" d="M5,13.94s2-.39,5.08-.7c1.52-.17,3.3-.31,5.21-.43.95,0,1.94-.12,2.94-.14l3-.1,3,0c1,0,2,0,2.94,0,1.91,0,3.69.12,5.22.23,3,.2,5.09.52,5.09.52s-2,.39-5.09.7c-1.52.17-3.3.32-5.2.43-.95,0-1.94.12-2.94.14l-3,.1-3,0c-1,0-2,0-2.94,0-1.9,0-3.69-.12-5.21-.23C7,14.26,5,13.94,5,13.94Z"/><path class="cls-1" d="M5.48,14.16c0-.2-.08-.3.16-.29-.07.22.09.32-.18.51.21.11.07-.23.28-.12,0,.09-.1.09-.09.22s.24.2.27,0c-.27-.29.4,0,.53.12,0-.47.79.11.77-.32.16.12.16.12.19.24,0-.09.08,0,.14,0,.1-.17-.16-.3,0-.3,0,.28.26,0,.25.16a.49.49,0,0,0-.21.14c.2.07.25-.06.41-.05,0,.08.1.18.13.08A.2.2,0,0,1,8,14.35c-.22-.1-.29,0-.4-.1.19,0,.08-.27.22-.29s-.06.25.19.31c0-.16.07-.23.21-.21.09-.5-.69-.15-.93-.21s0-.16-.13.07c-.27-.25-.16-.08-.34.05-.08-.18-.3,0-.39-.25-.14,0,.09.21-.15.21a.45.45,0,0,0-.11-.23c-.21.29.08.05,0,.3-.37-.24-.13.23-.37.27-.06-.18,0-.14,0-.38.09.09.16.1.21-.06s-.12-.11-.26-.09C5.89,14,5.1,13.68,5.48,14.16Z"/><path class="cls-1" d="M8.33,13.84c.41,0,.32.2.6,0v.22c.14-.11.48,0,.48-.28,0,.3.25.13.11.53.23-.11.22-.2.41-.21,0-.1-.16-.07-.26-.08,0-.34.31-.3.61-.29-.14.17,0,.08.06.23.13,0,0-.35.28-.23,0,.08-.16.08-.14.23l.19.23c.24,0-.13-.25.07-.23a.5.5,0,0,0,.47.15.21.21,0,0,0-.13-.22c0-.16.24,0,.34-.07s-.12.09-.21.07c0,.18.23.14.2.38s-.29.08-.28.29.39-.28.2.08c.18-.09.17,0,.4,0a1.45,1.45,0,0,1-.25-.67c.14,0,.14.11.06.22a.2.2,0,0,1,.33.08c.06-.05.27-.43,0-.38.07-.21.1-.08.27-.07,0,.16-.05.2-.07.3.13-.14.17,0,.33,0,.09-.41.19.12.27-.22.11,0,.46.28.41,0,.23.25.81,0,.73.3.24,0,.27-.2.33-.37.14,0,.22.16.34.23-.21-.38.31.25.33-.15.11.11.31.1.4.23.15,0-.08-.12.07-.23.2.1.24,0,.53,0,.09.29.14.28.35.52.19-.07-.05-.24,0-.38.34.12.76.14.93-.17.19.09.28.16.47.07,0,.06-.07.07-.06.15s.16-.17.33-.16c0,.12-.06.13-.06.23.21,0,.34-.31.4,0,.13,0,.08-.21.26-.16.11.31.7-.06.89.33,0-.22.14-.21.32-.39,0,.27.43-.1.28.22a4.71,4.71,0,0,1,2.22.11c.08,0,.05-.14.05-.23-.2-.09.16-.07.08.15.26-.15.51,0,.73-.28.39.4,1.39.25,1.81,0a.43.43,0,0,1,.08.3c.18-.12.43-.15.45-.42.16.22,0,.19.27.05.06.53,1.3,0,1.29.2.07,0,0-.08,0-.08,1.08.1,2-.32,3.08-.12,0-.08-.08-.05-.14-.06a5.61,5.61,0,0,1,2,0c0-.08,0-.26.3-.26a.42.42,0,0,0,0,.23.21.21,0,0,0,.1-.24A2.39,2.39,0,0,0,34,13.44c-.34.26.54.15.28.11.54.1,1.25-.53,1.82-.09a4.18,4.18,0,0,1,1.41-.34v.41c-.64-.13-1.37-.3-1.94-.37,0-.14.09-.15.09-.3-.17,0-.13.27-.23.36-.53-.23-.93.24-1.19-.37-.2.36-.79.14-.87,0-.1,0,0,.13.06.15-.23.33-.47-.24-.55.13-.71-.37-1.66-.06-2.47-.33.09.17-.36,0-.67-.08,0,.37-.85,0-1.21-.09s-.65.16-1,.15c-.54,0-1.14-.27-1.62-.27-.69,0-1.31.35-1.8.27.06,0-.19-.37-.14,0-.32-.2-.79.11-1.08-.18-.25.25-.73.1-.94,0-2.14.27-4.18.34-6.25.44a47.28,47.28,0,0,0-6.38.76c-.7.16-1.42.36-2.14.5a10.19,10.19,0,0,1-1.07.15H5.54l-.25,0H4.93a.53.53,0,0,1-.23-.09.47.47,0,0,0,.35,0,.29.29,0,0,1,0-.09.18.18,0,0,1,.1-.11.56.56,0,0,1,.33,0,3.54,3.54,0,0,0,.84.09c1.09-.15,2.38-.88,3.53-.88.55-.49,1.31-.15,2-.31.15,0,.2-.09.17-.25.86-.13,1.74.13,2.51,0a5.3,5.3,0,0,1,1.06-.26s-.07.14,0,.15c.21.09,1.13-.4,1.55-.06.32-.35.86,0,1.26-.33a.51.51,0,0,1,.15.22c0-.1.28-.25.13-.08a17,17,0,0,1,2.49,0c.15-.11.25-.35.4-.09.22-.52,1.26,0,1.61-.22a.2.2,0,0,1-.2.16c.13.08.32-.06.48.13-.08-.09.29-.31.4,0,0-.34.42.09.4-.24.28-.2.42.29.62.28s.27-.51.47,0c.12,0,0-.25.12-.3.44.14.48,0,.81,0,0,.31.24-.08.08.22.28-.19.74,0,1.14.06-.1-.39.18-.05.2-.37a.71.71,0,0,1,.75.3c.16,0,0-.25-.07-.22.06-.18.17.21.41.08-.28.2.06,0,.06.3.22,0,.32-.41.34,0,.14,0,.09-.2.27-.15-.08.1,0,.12,0,.23,0-.12.41-.23.21-.38a1.48,1.48,0,0,1,1,.16c.13,0,.09-.2.27-.15.16.25.25.15.54.16,0,.13.08.16.06.3.2-.05-.06-.16,0-.3h.27c-.14.3.28-.09.19.3.54-.15.29-.3.74,0a3.45,3.45,0,0,1,1.82.15c.12-.32.39,0,.57-.34.2.07.75.14,1.33.33l0,.22c.15-.13.13.05.27.1.1-.23-.22-.08-.11-.31a1.44,1.44,0,0,0,1,.37l1.84.07-1.83.56a3.88,3.88,0,0,0-.6.25c-.15-.14-.48-.24-.53.11-.31-.32-.94.22-1.14-.25.06.11-.18.52-.31.21-.16.11-.2.1-.08.32-.17-.14-.3-.24-.14-.44-.31.4-1.09.69-1.46.31,0,.12-.35.22-.16.25.05.23-.22-.16-.19.11-.19-.17.27-.34.26-.57-.2.07-.15.36-.51.3,0,.07.09,0,.15,0,0,.25-.35.14-.36-.1l-.45.13c-.17,0-.2-.12-.36-.11s-.1.24-.32.27c.14,0-.31-.32-.34-.12,0-.12,0-.14.12-.16s-.25,0-.26.11c-.2,0,.09-.13,0-.24s-.22.08-.25.18c-.19,0,.1-.28-.17-.28.07.32-.25-.14-.31.19.09.26.29-.1.29.19-.16-.06-.41,0-.55-.08,0,.06.07.12.15.13a1,1,0,0,1-1.1-.17c0,.06,0,.07-.06.08a.4.4,0,0,0,.21.12,1,1,0,0,1-.17.33c-.17,0-.41-.26-.31-.42-.05,0-.06.08-.12.09.05.18.27.13.24.42-.34-.24-.36-.06-.37-.33-.35,0,0,.36-.26.18,0-.06,0-.07-.07-.07s.08-.06.13-.09-.23,0-.28-.11c.22.18-.43.57-.39.27-.07,0,0,.14,0,.23-.09-.15-.51.13-.43-.26-.2.43-.52,0-.79.29-.19-.3-.59,0-.63-.32-.14.18-.56.09-.62-.25-.4.52-.7-.07-1.39.49-.1,0-.81-.12-1,.14.13-.35-.23-.43-.37-.5a.27.27,0,0,0,.29.28,3.89,3.89,0,0,0-.73.2c-.22-.09.06-.23.13-.09-.06-.23-.06-.14,0-.37,0,.17-.29.09-.26.31-.41-.13-.38,0-.61-.26-.14.44-.45-.13-.53.32-.06,0-.12-.08-.13,0-.23-.21-.61-.44-.67,0a.33.33,0,0,1-.22-.37c-.15,0-.14.2-.12.38a1.43,1.43,0,0,0-1.08-.1c.27-.4-.34,0-.15-.3-.14,0-.21.07-.19.23-.15-.25-.34,0-.54-.14,0,.27-.3.13-.2.23S17.08,15,17,15c0-.19,0-.27-.21-.22a.18.18,0,0,1,.2-.15c0-.13-.38,0-.34.16-.16.05-.47-.34-.47,0-.1-.07-.21-.11-.2-.3.05,0,.06.08.13.07s-.07-.07-.07-.14-.15.13-.13.3c-.16-.15-.31.16-.34-.14a.21.21,0,0,0-.13.22,1,1,0,0,0-.74.08c-.08,0,0-.14-.07-.23a.2.2,0,0,0-.2.15c-.12,0,0-.25-.2-.23.07.18-.68.4-.74,0-.05.25,0,0-.33,0,0,.09.12.07.2.08-.14.25-.35-.06-.47-.08s.06.42-.21.3a.52.52,0,0,0,.07-.37c-.11-.15-.5.07-.6-.23-.16.32-.29,0-.47.14a1.72,1.72,0,0,0,.39.24.18.18,0,0,1-.26,0c0,.2.26.06.2.3-.32-.11-.88.11-1.08-.08l0,0c.33-.14-.08-.13,0,0l-.05,0a.86.86,0,0,1-.8-.31c0,.06,0,.07-.07.07s.14.14.27.16c-.13.22-.39,0-.33-.24-.13,0-.07.29-.28.22,0-.21.14-.15.15-.3-.21-.06-.09.26-.34.14,0,.08.08.07.13.08-.16.16-.24,0-.48.06,0-.23-.13-.3-.18-.46-.16.06.18.2.05.46-.07-.16-.15-.36-.21,0-.37.13-.43-.41-.59-.26C7.93,14.19,8.41,14.16,8.33,13.84Zm18,.75c.05,0,.13,0,.14.06s-.07.07,0,.07.26,0,.35,0-.09-.16-.09-.29.07-.07,0-.08-.05.09-.13.09-.06-.08-.07,0,.18.11.08.15C26.61,14.51,26.32,14.41,26.32,14.59ZM17,14.44c.38.18.29-.65.06-.3.05,0,.13,0,.13.07S17,14.3,17,14.44Zm-2,.11c.05,0,.08.06.07.15s.14-.08.26-.07C15.45,14.4,15,14.43,15,14.55Zm-1.55-.09c.09,0,.06.13.14.15.13-.17,0-.08-.07-.22a.36.36,0,0,0,.2-.23C13.52,14.11,13.5,14.29,13.47,14.46Z"/><path class="cls-1" d="M12.6,14.53a.52.52,0,0,1-.54.08C12.14,15,12.74,14.71,12.6,14.53Z"/><path class="cls-1" d="M12.06,14.6h0Z"/><path class="cls-1" d="M5.21,13.75a.21.21,0,0,1,.06.1.3.3,0,0,1,0,.29.32.32,0,0,1-.25.12h.08a.08.08,0,0,1,.07.08c-.06.08-.11,0-.15,0s-.07,0,0,0a.36.36,0,0,0,.22,0A.49.49,0,0,0,5.43,14c0-.1,0-.12,0-.11s.07.07,0,.27a.51.51,0,0,1-.42.35.33.33,0,0,1-.13,0H5l.07,0a.31.31,0,0,1,.11.08c0-.11,0-.28.1-.29s.08.06.13.08c0-.36-.33-.1-.38-.26.17-.09.29.06.34,0-.19-.07.08-.15,0-.3a1.6,1.6,0,0,0-.3.13S5,14,5,14s0,0,.08,0a.14.14,0,0,0,0-.13c0-.05,0-.06,0-.08S5.12,13.72,5.21,13.75Z"/><path class="cls-1" d="M37.51,26.62s-2,.39-5.08.7c-1.52.17-3.3.32-5.21.43-.95,0-1.93.12-2.94.15l-3,.09-3,0c-1,0-2,0-2.94,0-1.91,0-3.69-.12-5.22-.23C7,27.56,5,27.24,5,27.24s2-.4,5.09-.71c1.52-.17,3.3-.31,5.2-.42.95-.05,1.94-.13,2.94-.15l3-.09,3,0c1,0,2,0,2.94,0,1.9,0,3.69.12,5.21.23C35.47,26.3,37.51,26.62,37.51,26.62Z"/><path class="cls-1" d="M37,26.41c0,.19.09.29-.16.28.08-.21-.09-.31.19-.51-.21-.11-.08.24-.29.12,0-.09.1-.09.09-.21s-.24-.21-.27,0c.27.29-.4,0-.53-.12-.05.48-.79-.11-.77.32-.16-.12-.16-.12-.19-.23,0,.09-.08,0-.13,0-.11.16.15.29,0,.3,0-.28-.27,0-.26-.17a.49.49,0,0,0,.21-.14c-.2-.06-.25.06-.41,0s-.1-.18-.13-.08a.21.21,0,0,1,.12.23c.22.1.29,0,.4.1-.19,0-.08.28-.22.29s.06-.25-.18-.31c0,.16-.07.23-.22.21-.09.5.69.15.93.21s0,.16.13-.07c.27.25.16.08.34-.05.08.18.3,0,.39.26.14,0-.08-.22.15-.22a.59.59,0,0,0,.11.24c.21-.3-.07-.05,0-.31.37.24.13-.22.37-.27.07.19,0,.14,0,.38-.09-.09-.16-.09-.21.06s.12.12.26.1C36.58,26.54,37.37,26.88,37,26.41Z"/><path class="cls-1" d="M34.14,26.72c-.4,0-.32-.2-.6,0v-.22c-.14.11-.48,0-.48.28,0-.29-.25-.13-.11-.53-.22.11-.22.2-.41.21,0,.11.16.07.26.09,0,.33-.31.29-.61.28.14-.17,0-.08-.06-.22-.13,0,0,.34-.28.22.05-.08.16-.08.14-.23l-.19-.22c-.24,0,.14.25-.07.22a.5.5,0,0,0-.47-.15.2.2,0,0,0,.13.22c0,.17-.24,0-.34.08s.13-.1.21-.08c0-.17-.23-.14-.19-.37s.28-.09.27-.3-.39.28-.2-.08c-.18.09-.17,0-.4,0a1.35,1.35,0,0,1,.25.68c-.14-.05-.14-.12-.06-.23a.2.2,0,0,1-.33-.08c-.06.06-.27.43,0,.38-.06.22-.1.08-.27.07,0-.16.05-.2.07-.3-.13.14-.17,0-.33,0-.09.41-.19-.12-.27.22-.11,0-.46-.28-.4,0-.23-.26-.82,0-.74-.31-.24,0-.26.2-.33.38a2,2,0,0,1-.34-.23c.21.37-.3-.26-.33.14-.1-.1-.31-.1-.4-.22-.15,0,.08.11-.07.22-.2-.1-.23,0-.53,0-.09-.29-.14-.28-.35-.52-.19.07.05.25,0,.38-.34-.12-.76-.14-.93.17-.19-.08-.28-.15-.47-.06,0-.06.07-.08.06-.15s-.16.16-.33.15c0-.12.06-.13.06-.22-.21,0-.34.3-.4,0-.13,0-.08.2-.26.16-.11-.32-.7.05-.89-.34,0,.23-.14.21-.32.39,0-.27-.43.1-.27-.22a4.74,4.74,0,0,1-2.23-.11c-.08,0-.05.14-.05.23.2.1-.16.07-.08-.14-.26.15-.51,0-.72.27a1.9,1.9,0,0,0-1.82,0,.46.46,0,0,1-.08-.29c-.18.11-.43.14-.45.41-.16-.22,0-.18-.27,0-.06-.52-1.3,0-1.29-.19-.07,0,0,.08,0,.07-1.08-.1-2,.32-3.08.13,0,.07.08.05.14.06a5.61,5.61,0,0,1-2,0c0,.08,0,.26-.3.26a.4.4,0,0,0,0-.23.2.2,0,0,0-.11.24,2.39,2.39,0,0,0-1.81.11C8.85,26.86,8,27,8.23,27c-.54-.09-1.25.54-1.82.1A4.48,4.48,0,0,1,5,27.44V27c.64.13,1.37.3,1.94.37,0,.14-.09.16-.09.3.18,0,.13-.27.23-.36.53.23.93-.23,1.19.37.2-.36.79-.13.87,0,.1,0,0-.13-.06-.15.24-.33.47.24.55-.13.71.37,1.66.07,2.47.33-.09-.16.36,0,.67.08,0-.37.85.05,1.21.09s.65-.16,1-.14c.54,0,1.14.26,1.62.27.69,0,1.31-.36,1.8-.27-.06,0,.19.36.14,0,.32.2.79-.11,1.08.18.25-.25.73-.09.95,0,2.13-.27,4.17-.34,6.24-.44a47.28,47.28,0,0,0,6.38-.76c.7-.16,1.43-.36,2.14-.5a8,8,0,0,1,1.07-.14,4.52,4.52,0,0,1,.52,0l.25,0h.22s.05,0,.14,0a.44.44,0,0,1,.23.1.47.47,0,0,0-.35,0,.24.24,0,0,1,0,.09.2.2,0,0,1-.09.11.53.53,0,0,1-.34,0,3.54,3.54,0,0,0-.84-.09c-1.08.16-2.38.88-3.53.88-.55.5-1.31.16-2,.32-.14,0-.2.08-.17.24-.86.13-1.74-.13-2.51,0a6.1,6.1,0,0,1-1.06.27s.07-.15.05-.16c-.21-.08-1.12.4-1.55.06-.32.35-.86,0-1.26.33A.51.51,0,0,1,24,28.2c0,.1-.28.25-.13.09a17.08,17.08,0,0,1-2.49,0c-.15.11-.25.36-.4.1-.21.51-1.26,0-1.61.21a.19.19,0,0,1,.2-.15c-.13-.09-.32.05-.48-.13.08.09-.29.31-.4,0,0,.34-.42-.09-.4.24-.28.21-.42-.29-.62-.28s-.27.51-.47,0c-.12,0,0,.25-.12.3-.44-.14-.47,0-.81,0,0-.31-.23.08-.08-.22-.28.19-.74,0-1.14-.06.1.39-.18,0-.2.38a.72.72,0,0,1-.75-.31c-.16,0,0,.25.07.22-.06.18-.17-.2-.41-.07.28-.21-.06,0-.06-.3-.22,0-.32.41-.34,0-.13,0-.09.21-.27.15.08-.1,0-.12,0-.22,0,.12-.41.23-.21.37a1.43,1.43,0,0,1-1-.16c-.13,0-.09.2-.27.15-.16-.25-.25-.14-.54-.16,0-.13-.08-.16-.06-.3-.2.05.06.16,0,.3h-.27c.14-.3-.28.09-.19-.3-.53.16-.29.31-.74,0a3.46,3.46,0,0,1-1.82-.16c-.12.32-.38,0-.57.34-.2-.06-.75-.14-1.33-.33l0-.22c-.15.14-.13-.05-.26-.1-.11.23.21.08.1.31a1.36,1.36,0,0,0-1-.36l-1.84-.08,1.83-.56a3.51,3.51,0,0,0,.6-.25c.15.15.48.24.53-.1.31.31.94-.23,1.14.24-.06-.11.18-.52.31-.2.16-.12.2-.1.08-.32.18.13.3.23.14.43.31-.4,1.09-.69,1.46-.31,0-.12.35-.22.16-.25-.05-.23.22.16.2-.1.18.16-.28.33-.27.57.2-.08.15-.37.51-.31,0-.07-.09,0-.15-.05,0-.25.35-.13.36.1l.45-.13c.17,0,.21.12.36.11s.1-.24.32-.26c-.14,0,.31.31.34.11,0,.12,0,.14-.12.16,0,.18.25,0,.26-.1.2,0-.09.13,0,.23s.22-.08.25-.18c.19,0-.1.29.17.28-.07-.32.25.14.31-.19s-.28.1-.29-.19c.16.06.41,0,.55.09,0-.07-.07-.13-.15-.14a1,1,0,0,1,1.1.18c0-.07,0-.08.06-.09a.48.48,0,0,0-.21-.12.9.9,0,0,1,.17-.32c.17.05.41.25.31.41,0,0,.06-.08.13-.09-.06-.18-.28-.13-.25-.42.34.24.36.06.37.33.35,0,0-.35.26-.18,0,.07,0,.07.07.07s-.08.07-.13.09.23,0,.28.12c-.22-.18.44-.58.39-.27.07,0,0-.15.05-.24.09.15.5-.12.42.26.2-.43.52,0,.79-.29.19.3.6-.05.63.32a.39.39,0,0,1,.62.25c.4-.51.7.08,1.39-.48.1,0,.81.11,1-.14-.13.34.22.42.36.5,0-.19-.12-.29-.29-.28.25-.1.52-.07.73-.2.22.08-.06.23-.13.08a.5.5,0,0,1,0,.38c0-.18.29-.1.26-.32.42.13.38,0,.61.26.14-.44.45.13.53-.32.06,0,.12.09.13,0,.23.21.61.44.67,0A.31.31,0,0,1,23,26c.15,0,.14-.19.12-.38a1.48,1.48,0,0,0,1.08.11c-.27.39.34,0,.15.29.14,0,.21-.07.19-.23.15.26.34,0,.54.14,0-.27.31-.13.2-.23s.16-.07.27-.08c0,.19,0,.27.2.22a.18.18,0,0,1-.19.15c0,.13.37,0,.33-.15.17-.06.47.33.47,0,.1.06.21.1.21.29-.06,0-.07-.07-.14-.07s.07.07.07.15.15-.14.13-.31c.16.15.31-.16.34.15a.22.22,0,0,0,.13-.23.94.94,0,0,0,.74-.08c.08,0,.05.14.07.23a.19.19,0,0,0,.2-.15c.12,0,0,.25.2.23-.07-.18.68-.39.74,0,.05-.25,0,0,.33,0,0-.09-.12-.07-.2-.08.14-.24.35.06.47.08s-.06-.42.21-.3a.53.53,0,0,0-.07.38c.11.14.5-.08.6.23.16-.33.29-.06.47-.15a1.72,1.72,0,0,0-.39-.24.18.18,0,0,1,.26,0c0-.19-.26-.06-.2-.3.32.11.88-.11,1.08.09l0,0c-.33.13.08.12,0,0l.05,0a.84.84,0,0,1,.8.3c0-.06,0-.07.07-.07s-.14-.14-.27-.15c.13-.22.39,0,.33.23.13,0,.07-.29.28-.22,0,.21-.14.15-.15.3.21.06.1-.26.35-.14,0-.07-.08-.06-.14-.08.16-.15.24,0,.48-.06,0,.23.13.3.18.46.16-.06-.18-.19-.05-.45.07.15.15.36.21,0,.37-.14.43.4.59.25C34.54,26.38,34.06,26.41,34.14,26.72Zm-18-.74S16,26,16,25.91s.07-.06,0-.07c0,.14-.26,0-.35-.05,0,.15.09.16.09.3s-.07.06,0,.07.05-.09.13-.08.06.07.07,0-.17-.11-.08-.14C15.86,26.05,16.15,26.16,16.15,26Zm9.29.14c-.38-.17-.29.65-.06.31-.05,0-.13,0-.13-.08S25.44,26.27,25.44,26.12Zm2-.11c-.05,0-.07-.06-.07-.15s-.14.08-.26.08C27,26.16,27.47,26.13,27.45,26ZM29,26.1c-.09,0-.06-.13-.14-.15-.13.17,0,.08.07.22a.38.38,0,0,0-.2.23C29,26.45,29,26.27,29,26.1Z"/><path class="cls-1" d="M29.87,26a.57.57,0,0,1,.54-.08C30.33,25.58,29.73,25.85,29.87,26Z"/><path class="cls-1" d="M30.41,26h0Z"/><path class="cls-1" d="M37.26,26.82a.48.48,0,0,1-.06-.11.32.32,0,0,1,0-.29c.17-.16.23-.1.25-.11h-.08s-.07,0-.07-.07.11,0,.15,0,.07,0,0,0a.32.32,0,0,0-.22,0,.46.46,0,0,0-.24.36c0,.1,0,.13,0,.12s-.07-.07,0-.27a.51.51,0,0,1,.42-.36.31.31,0,0,1,.14,0h-.06l-.07,0a.23.23,0,0,1-.11-.08c0,.11,0,.28-.1.3s-.07-.07-.13-.09c0,.36.33.1.38.26-.17.1-.28-.05-.34,0,.19.07-.08.16,0,.3a1.6,1.6,0,0,0,.3-.13s.1-.07.1-.13,0,0-.08,0a.15.15,0,0,0,0,.13c0,.05,0,.06,0,.08S37.35,26.84,37.26,26.82Z"/><path class="cls-1" d="M6,40.54s2-.4,5.08-.71c1.52-.16,3.3-.31,5.21-.42.95,0,1.94-.12,2.94-.15l3-.09,3,0c1,0,2,0,2.94,0,1.91,0,3.69.12,5.22.23,3,.19,5.09.51,5.09.51s-2,.4-5.09.71c-1.52.16-3.3.31-5.2.42-.95.05-1.94.13-2.94.15l-3,.09-3,0c-1,0-2,0-2.94,0-1.9,0-3.69-.12-5.21-.23C8,40.86,6,40.54,6,40.54Z"/><path class="cls-1" d="M6.48,40.75c0-.19-.08-.3.16-.28-.07.21.09.31-.18.51.21.11.07-.24.28-.13,0,.1-.1.1-.09.22s.24.21.27,0c-.27-.3.4,0,.53.11,0-.47.79.11.77-.31.16.11.16.12.19.23,0-.09.08,0,.14,0,.1-.16-.16-.29,0-.3,0,.28.26,0,.25.17a.49.49,0,0,0-.21.14c.2.06.25-.07.41-.06,0,.09.1.19.13.09A.22.22,0,0,1,9,40.94c-.22-.09-.29,0-.4-.09.19,0,.08-.28.22-.29s-.06.24.19.31c0-.16.07-.24.21-.21.09-.5-.69-.15-.93-.21s0-.16-.13.07c-.27-.25-.16-.08-.34,0-.08-.18-.3,0-.39-.26-.14,0,.09.21-.15.22a.48.48,0,0,0-.11-.24c-.21.3.08.05,0,.31-.37-.24-.13.22-.37.27-.06-.19,0-.14,0-.38.09.09.16.09.21-.06s-.12-.12-.26-.1C6.89,40.62,6.1,40.27,6.48,40.75Z"/><path class="cls-1" d="M9.33,40.43c.41,0,.32.21.6,0v.23c.14-.12.48,0,.48-.28,0,.29.25.12.11.53.23-.12.22-.2.41-.21,0-.11-.16-.07-.26-.09,0-.34.31-.3.61-.28-.14.17,0,.08.06.22.13,0,0-.34.28-.22,0,.08-.16.08-.14.22l.19.23c.24,0-.13-.25.07-.22a.56.56,0,0,0,.47.15.22.22,0,0,0-.13-.23c0-.16.24,0,.34-.07s-.12.1-.21.07c0,.18.23.15.2.38s-.29.09-.28.3.39-.28.2.07c.18-.08.17,0,.4,0a1.44,1.44,0,0,1-.25-.68c.14,0,.14.12.06.23a.2.2,0,0,1,.33.07c.06,0,.27-.42,0-.37.07-.22.1-.08.27-.07s-.05.2-.07.3c.13-.14.17,0,.33,0,.09-.41.19.12.27-.22.11,0,.46.28.41,0,.23.26.81,0,.73.31.24,0,.27-.2.33-.38a2,2,0,0,1,.34.23c-.21-.37.31.25.33-.15.11.11.31.11.4.23.15,0-.08-.11.07-.22.2.1.24,0,.53,0,.09.28.14.28.35.51.19-.06-.05-.24,0-.37.34.11.76.14.93-.17.19.08.28.15.47.06,0,.06-.07.08-.06.15s.16-.16.33-.15c0,.11-.06.13-.06.22.21,0,.34-.3.4,0,.13,0,.08-.21.26-.16.11.32.7,0,.89.34,0-.23.14-.21.32-.39,0,.27.43-.11.28.21a4.82,4.82,0,0,1,2.22.12c.08,0,.05-.15.05-.23-.2-.1.16-.07.08.14.26-.15.51,0,.73-.27.39.39,1.39.25,1.81,0a.4.4,0,0,1,.08.29c.18-.11.43-.14.45-.41.16.22,0,.18.27.05.06.52,1.3,0,1.29.19.07,0,0-.08,0-.07,1.08.1,2-.32,3.08-.13,0-.07-.08,0-.14-.06a5.61,5.61,0,0,1,2,0c0-.08,0-.26.3-.26a.4.4,0,0,0,0,.23.21.21,0,0,0,.1-.24A2.44,2.44,0,0,0,35,40c-.34.26.54.15.28.1.54.1,1.25-.53,1.82-.09a4.22,4.22,0,0,1,1.41-.33v.41c-.64-.13-1.37-.3-1.94-.38,0-.13.09-.15.09-.29-.17,0-.13.27-.23.36-.53-.24-.93.23-1.19-.38-.2.37-.79.14-.87,0-.1,0,0,.14.06.16-.23.33-.47-.24-.55.13-.71-.38-1.66-.07-2.47-.33.09.16-.36,0-.67-.08,0,.37-.85-.05-1.21-.09s-.65.15-1,.14c-.54,0-1.14-.26-1.62-.27-.69,0-1.31.35-1.8.27.06,0-.19-.37-.14,0-.32-.21-.79.1-1.08-.18-.25.25-.73.09-.94,0-2.14.27-4.18.35-6.25.45a44.27,44.27,0,0,0-6.38.76c-.7.15-1.42.36-2.14.5A8,8,0,0,1,7.06,41a4.47,4.47,0,0,1-.52,0H6.07S6,41,5.93,41a.54.54,0,0,1-.23-.1.52.52,0,0,0,.35,0,.2.2,0,0,1,0-.09.23.23,0,0,1,.1-.12.57.57,0,0,1,.33,0,4.14,4.14,0,0,0,.84.09c1.09-.16,2.38-.88,3.53-.88.55-.5,1.31-.16,2-.32.15,0,.2-.08.17-.24.86-.13,1.74.13,2.51,0A7.14,7.14,0,0,1,16.61,39s-.07.15-.05.16c.21.08,1.13-.41,1.55-.06.32-.35.86,0,1.26-.33a.51.51,0,0,1,.15.22c0-.1.28-.25.13-.09a17.08,17.08,0,0,1,2.49,0c.15-.11.25-.36.4-.1.22-.51,1.26,0,1.61-.22a.19.19,0,0,1-.2.16c.13.09.32-.05.48.13-.08-.09.29-.31.4,0,0-.34.42.09.4-.25.28-.2.42.3.62.29s.27-.51.47,0c.12,0,0-.26.12-.3.44.14.48,0,.81,0,0,.31.24-.08.08.22.28-.19.74,0,1.14.06-.1-.39.18-.05.2-.38a.72.72,0,0,1,.75.31c.16,0,0-.25-.07-.23.06-.17.17.21.41.08-.28.21.06,0,.06.3.22,0,.32-.41.34,0,.14,0,.09-.21.27-.15-.08.1,0,.12,0,.22,0-.12.41-.23.21-.37a1.43,1.43,0,0,1,1,.16c.13,0,.09-.21.27-.15.16.25.25.14.54.16,0,.13.08.15.06.3.2,0-.06-.16,0-.31h.27c-.14.29.28-.09.19.3.54-.16.29-.31.74,0a3.46,3.46,0,0,1,1.82.16c.12-.32.39,0,.57-.34.2.06.75.13,1.33.32l0,.23c.15-.14.13,0,.27.1.1-.24-.22-.08-.11-.31a1.38,1.38,0,0,0,1,.36l1.84.08-1.83.56a5.33,5.33,0,0,0-.6.24c-.15-.14-.48-.23-.53.11-.31-.32-.94.23-1.14-.24.06.11-.18.52-.31.2-.16.12-.2.1-.08.32-.17-.13-.3-.23-.14-.43-.31.4-1.09.69-1.46.31,0,.12-.35.21-.16.25.05.23-.22-.16-.19.1-.19-.16.27-.33.26-.57-.2.08-.15.36-.51.3,0,.07.09.05.15.06,0,.25-.35.13-.36-.1l-.45.13c-.17,0-.2-.12-.36-.11s-.1.24-.32.26c.14,0-.31-.32-.34-.11,0-.12,0-.15.12-.16,0-.18-.25,0-.26.1-.2,0,.09-.13,0-.23a.29.29,0,0,0-.25.18c-.19-.05.1-.29-.17-.28.07.31-.25-.15-.31.19.09.25.29-.1.29.19-.16-.06-.41,0-.55-.09,0,.06.07.13.15.13a1,1,0,0,1-1.1-.17c0,.06,0,.08-.06.08a.42.42,0,0,0,.21.13.9.9,0,0,1-.17.32c-.17-.05-.41-.25-.31-.41-.05,0-.06.08-.12.09.05.17.27.12.24.42-.34-.24-.36-.07-.37-.33-.35,0,0,.35-.26.18,0-.07,0-.07-.07-.07s.08-.07.13-.09-.23,0-.28-.12c.22.18-.43.57-.39.27-.07,0,0,.15,0,.23-.09-.15-.51.13-.43-.25-.2.43-.52,0-.79.29-.19-.3-.59,0-.63-.32A.39.39,0,0,1,26,41c-.4.51-.7-.08-1.39.48-.1,0-.81-.11-1,.14.13-.34-.23-.42-.37-.5a.27.27,0,0,0,.29.28c-.25.1-.52.07-.73.2-.22-.08.06-.23.13-.08a.5.5,0,0,1,0-.38c0,.18-.29.09-.26.32-.41-.13-.38,0-.61-.26-.14.44-.45-.13-.53.32-.06,0-.12-.09-.13,0-.23-.21-.61-.44-.67,0a.32.32,0,0,1-.22-.36c-.15,0-.14.19-.12.38a1.38,1.38,0,0,0-1.08-.11c.27-.39-.34,0-.15-.29-.14,0-.21.06-.19.23-.15-.26-.34,0-.54-.14,0,.27-.3.13-.2.23s-.16.07-.26.08c0-.2,0-.27-.21-.22a.19.19,0,0,1,.2-.16c0-.13-.38,0-.34.16-.16,0-.47-.33-.47,0-.1-.06-.21-.1-.2-.29.05,0,.06.07.13.07S17,41.06,17,41s-.15.13-.13.3c-.16-.15-.31.17-.34-.14a.22.22,0,0,0-.13.23.94.94,0,0,0-.74.07c-.08,0,0-.13-.07-.22a.18.18,0,0,0-.2.15c-.12,0,0-.25-.2-.23.07.17-.68.39-.74,0-.05.25,0,0-.33,0,0,.09.12.06.2.08-.14.24-.35-.06-.47-.08s.06.42-.21.3a.53.53,0,0,0,.07-.38c-.11-.14-.5.08-.6-.23-.16.33-.29.06-.47.15a1.36,1.36,0,0,0,.39.23.16.16,0,0,1-.26,0c0,.2.26.07.2.31-.32-.11-.88.11-1.08-.09l0,0c.33-.13-.08-.12,0,0l-.05,0a.84.84,0,0,1-.8-.31c0,.07,0,.07-.07.08s.14.14.27.15c-.13.22-.39,0-.33-.23-.13,0-.07.29-.28.22,0-.21.14-.15.15-.3-.21-.06-.09.26-.34.14,0,.07.08.06.13.08-.16.15-.24,0-.48.06,0-.23-.13-.3-.18-.46-.16,0,.18.19.05.45-.07-.15-.15-.36-.21,0-.37.13-.43-.4-.59-.25C8.93,40.78,9.41,40.75,9.33,40.43Zm18,.75c.05,0,.13,0,.14.06s-.07.07,0,.08.26,0,.35,0c0-.15-.09-.16-.09-.3s.07-.06,0-.07-.05.09-.13.08-.06-.08-.07,0,.18.11.08.14S27.32,41,27.32,41.18ZM18,41c.38.18.29-.64.06-.3.05,0,.13,0,.13.07S18,40.89,18,41Zm-2,.12c.05,0,.08.06.07.15s.14-.08.26-.08C16.45,41,16,41,16,41.15Zm-1.55-.09c.09,0,.06.13.14.15.13-.17,0-.08-.07-.23a.34.34,0,0,0,.2-.22C14.52,40.71,14.5,40.88,14.47,41.06Z"/><path class="cls-1" d="M13.6,41.13a.57.57,0,0,1-.54.08C13.14,41.57,13.74,41.31,13.6,41.13Z"/><path class="cls-1" d="M13.06,41.2h0Z"/><path class="cls-1" d="M6.21,40.34a.27.27,0,0,1,.06.11.3.3,0,0,1,0,.29c-.17.15-.23.1-.25.11h.08s.07,0,.07.07S6,41,6,41s-.07,0,0,0a.41.41,0,0,0,.22,0,.51.51,0,0,0,.25-.36c0-.1,0-.13,0-.12s.07.07,0,.27a.53.53,0,0,1-.42.36H6l.07,0a.3.3,0,0,1,.11.07c0-.11,0-.27.1-.29s.08.07.13.09c0-.37-.33-.1-.38-.27.17-.09.29.06.34,0-.19-.07.08-.16,0-.3a1.14,1.14,0,0,0-.3.13s-.1.07-.1.13a.07.07,0,0,0,.08,0,.16.16,0,0,0,0-.14s0,0,0-.07S6.12,40.31,6.21,40.34Z"/></svg>