<svg id="圖層_1" data-name="圖層 1" xmlns="http://www.w3.org/2000/svg" viewBox="0 0 43.47 53.8"><defs><style>.cls-1{fill:#221f20;}</style></defs><title>toggle</title><path class="cls-1" d="M38.51,39.92s-2,.39-5.08.7c-1.52.17-3.3.32-5.21.43-.95,0-1.93.12-2.94.14l-3,.1-3,0c-1,0-2,0-2.94,0-1.91,0-3.69-.12-5.22-.23C8,40.86,6,40.54,6,40.54s2-.4,5.09-.71c1.52-.17,3.3-.32,5.2-.43.95,0,1.94-.12,2.94-.14l3-.1,3,0c1,0,2,0,2.94,0,1.9,0,3.69.12,5.21.23C36.47,39.6,38.51,39.92,38.51,39.92Z"/><path class="cls-1" d="M38,39.7c0,.2.09.3-.16.29.08-.22-.09-.31.19-.51-.21-.11-.08.23-.29.12,0-.09.1-.09.09-.22s-.24-.2-.27,0c.27.29-.4,0-.53-.12-.05.47-.79-.11-.77.32-.16-.12-.16-.12-.19-.24,0,.09-.08,0-.13,0-.11.17.15.3,0,.3,0-.28-.27,0-.26-.16a.49.49,0,0,0,.21-.14c-.2-.07-.25.06-.41,0s-.1-.18-.13-.08a.2.2,0,0,1,.12.23c.22.1.29,0,.4.1-.19,0-.08.28-.22.29s.06-.25-.18-.31c0,.16-.07.23-.22.21-.09.5.69.15.93.21s0,.16.13-.07c.27.25.16.08.34,0,.08.18.3,0,.39.25.14,0-.08-.21.15-.21a.55.55,0,0,0,.11.23c.21-.29-.07,0,0-.3.37.24.13-.23.37-.27.07.18,0,.14,0,.38-.09-.09-.16-.1-.21.06s.12.11.26.09C37.58,39.84,38.37,40.18,38,39.7Z"/><path class="cls-1" d="M35.14,40c-.4,0-.32-.2-.6,0v-.22c-.14.11-.48,0-.48.28,0-.3-.25-.13-.11-.53-.22.11-.22.2-.41.21,0,.1.16.07.26.08,0,.34-.31.3-.61.29.14-.17,0-.08-.06-.23-.13,0,0,.35-.28.23,0-.08.16-.08.14-.23l-.19-.22c-.24,0,.14.24-.07.22a.5.5,0,0,0-.47-.15.21.21,0,0,0,.13.22c0,.17-.24,0-.34.07s.13-.09.21-.07c0-.18-.23-.14-.19-.38s.28-.08.27-.29-.39.28-.2-.08c-.18.09-.17,0-.4,0a1.34,1.34,0,0,1,.25.67c-.14,0-.14-.11-.06-.22a.2.2,0,0,1-.33-.08c-.06.06-.27.43,0,.38-.06.21-.1.08-.27.07s.05-.2.07-.3c-.13.14-.17,0-.33,0-.09.41-.19-.12-.27.22-.11,0-.46-.28-.4,0-.23-.26-.82,0-.74-.31-.24,0-.26.2-.33.37-.14,0-.22-.16-.34-.23.21.38-.3-.25-.33.15-.1-.11-.31-.1-.4-.23-.15,0,.08.12-.07.23-.2-.1-.23,0-.53,0-.09-.29-.14-.28-.35-.52-.19.07.05.24,0,.38-.34-.12-.76-.14-.93.17-.19-.09-.28-.16-.47-.07,0-.06.07-.07.06-.15s-.16.17-.33.16c0-.12.06-.13.06-.23-.21,0-.34.31-.4,0-.13,0-.08.21-.26.16-.11-.31-.7.06-.89-.33,0,.22-.14.21-.32.39,0-.27-.43.1-.27-.22a4.74,4.74,0,0,1-2.23-.11c-.08,0-.05.14-.05.23.2.09-.16.07-.08-.15-.26.15-.51,0-.72.28-.4-.4-1.4-.25-1.82,0a.47.47,0,0,1-.08-.3c-.18.12-.43.15-.45.42-.16-.22,0-.18-.27-.05-.06-.53-1.3,0-1.29-.2-.07,0,0,.08,0,.08-1.08-.1-2,.32-3.08.13,0,.07.08,0,.14.05a5.61,5.61,0,0,1-2,0c0,.08,0,.26-.3.26a.41.41,0,0,0,0-.23.2.2,0,0,0-.11.24,2.39,2.39,0,0,0-1.81.11c.34-.26-.54-.15-.28-.11-.54-.1-1.25.53-1.82.09A4.18,4.18,0,0,1,6,40.74v-.41c.64.13,1.37.3,1.94.37,0,.14-.09.15-.09.3.18,0,.13-.27.23-.36.53.23.93-.24,1.19.37.2-.36.79-.14.87,0,.1,0,0-.13-.06-.15.24-.33.47.24.55-.13.71.37,1.66.06,2.47.33-.09-.17.36,0,.67.08,0-.37.85,0,1.21.09s.65-.16,1-.15c.54,0,1.14.27,1.62.28.69,0,1.31-.36,1.8-.28-.06,0,.19.37.14,0,.32.2.79-.11,1.08.18.25-.25.73-.1.95,0,2.13-.27,4.17-.34,6.24-.44a47.28,47.28,0,0,0,6.38-.76c.7-.16,1.43-.36,2.14-.5a10.19,10.19,0,0,1,1.07-.15h.52l.25,0h.22s.05,0,.14,0a.53.53,0,0,1,.23.09.47.47,0,0,0-.35,0,.29.29,0,0,1,0,.09.2.2,0,0,1-.09.11.6.6,0,0,1-.34.05,3.54,3.54,0,0,0-.84-.09c-1.08.15-2.38.88-3.53.88-.55.49-1.31.15-2,.31-.14,0-.2.09-.17.25-.86.13-1.74-.13-2.51,0a5.3,5.3,0,0,1-1.06.26s.07-.14.05-.15c-.21-.08-1.12.4-1.55.06-.32.35-.86,0-1.26.33A.51.51,0,0,1,25,41.5c0,.1-.28.25-.13.08a17,17,0,0,1-2.49,0c-.15.11-.25.35-.4.09-.21.52-1.26,0-1.61.22a.2.2,0,0,1,.2-.16c-.13-.08-.32.06-.48-.13.08.09-.29.32-.4,0,0,.34-.42-.09-.4.24-.28.2-.42-.29-.62-.28s-.27.51-.47,0c-.12,0,0,.25-.12.3-.44-.14-.47,0-.81,0,0-.31-.23.08-.08-.22-.28.19-.74,0-1.14-.06.1.39-.18.05-.2.37a.71.71,0,0,1-.75-.3c-.16,0,0,.25.07.22-.06.18-.17-.21-.41-.08.28-.2-.06,0-.06-.3-.22,0-.32.41-.34,0-.13,0-.09.2-.27.15.08-.1,0-.12,0-.23,0,.12-.41.23-.21.38a1.48,1.48,0,0,1-1-.16c-.13,0-.09.2-.27.15-.16-.25-.25-.14-.54-.16,0-.13-.08-.16-.06-.3-.2,0,.06.16,0,.3h-.27c.14-.3-.28.09-.19-.3-.53.15-.29.3-.74,0a3.35,3.35,0,0,1-1.82-.15c-.12.32-.38,0-.57.34-.2-.07-.75-.14-1.33-.33L7,41c-.15.14-.13,0-.26-.1-.11.23.21.08.1.31a1.42,1.42,0,0,0-1-.37l-1.84-.07,1.83-.56A3.51,3.51,0,0,0,6.5,40c.15.15.48.24.53-.1.31.31.94-.23,1.14.24-.06-.11.18-.52.31-.21.16-.11.2-.1.08-.32.18.14.3.24.14.44.31-.4,1.09-.69,1.46-.31,0-.12.35-.22.16-.25-.05-.23.22.16.2-.11.18.17-.28.34-.27.57.2-.07.15-.36.51-.3,0-.07-.09,0-.15,0,0-.25.35-.14.36.1l.45-.13c.17,0,.21.12.36.11s.1-.24.32-.27c-.14,0,.31.32.34.12,0,.12,0,.14-.12.16,0,.17.25,0,.26-.1.2,0-.09.12,0,.23s.22-.08.25-.18c.19,0-.1.29.17.28-.07-.32.25.14.31-.19s-.28.1-.29-.19c.16.06.41,0,.55.08a.2.2,0,0,0-.15-.13,1,1,0,0,1,1.1.17c0-.06,0-.07.06-.08a.4.4,0,0,0-.21-.12,1,1,0,0,1,.17-.33c.17,0,.41.26.31.42,0,0,.06-.08.13-.09-.06-.18-.28-.13-.25-.42.34.24.36.06.37.33.35,0,0-.36.26-.18,0,.06,0,.07.07.07s-.08.06-.13.09.23,0,.28.11c-.22-.18.44-.57.39-.27.07,0,0-.14.05-.23.09.15.5-.13.42.26.2-.43.52,0,.79-.29.19.3.6,0,.63.32.14-.18.56-.09.62.25.4-.52.7.07,1.39-.49.1,0,.81.12,1-.14-.13.35.22.43.36.51,0-.19-.12-.29-.29-.29a3.89,3.89,0,0,0,.73-.2c.22.09-.06.23-.13.09.06.23.06.14,0,.37,0-.17.29-.09.26-.31.42.13.38,0,.61.26.14-.44.45.13.53-.32.06,0,.12.08.13,0,.23.21.61.44.67,0a.32.32,0,0,1,.22.37c.15,0,.14-.2.12-.38a1.43,1.43,0,0,0,1.08.1c-.27.4.34,0,.15.3.14,0,.21-.07.19-.23.15.25.34,0,.54.14,0-.27.31-.13.2-.23s.16-.07.27-.08c0,.19,0,.27.2.22a.18.18,0,0,1-.19.15c0,.13.37,0,.33-.16.17,0,.47.34.47,0,.1.07.21.11.21.3-.06,0-.07-.08-.14-.07s.07.07.07.14.15-.13.13-.3c.16.15.31-.16.34.14a.21.21,0,0,0,.13-.22,1,1,0,0,0,.74-.08c.08,0,.05.14.07.23a.2.2,0,0,0,.2-.15c.12,0,0,.25.2.23-.07-.18.68-.4.74,0,.05-.25,0,0,.33,0,0-.09-.12-.07-.2-.08.14-.25.35.06.47.08s-.06-.42.21-.3a.52.52,0,0,0-.07.37c.11.15.5-.07.6.23.16-.32.29-.05.47-.14a1.72,1.72,0,0,0-.39-.24.18.18,0,0,1,.26,0c0-.19-.26-.06-.2-.3.32.11.88-.11,1.08.08l0,0c-.33.13.08.12,0,0l.05,0a.85.85,0,0,1,.8.31c0-.06,0-.07.07-.07s-.14-.14-.27-.15c.13-.22.39,0,.33.23.13,0,.07-.29.28-.22,0,.21-.14.15-.15.3.21.06.1-.26.35-.14,0-.08-.08-.06-.14-.08.16-.16.24,0,.48-.06,0,.23.13.3.18.46.16-.06-.18-.2-.05-.46.07.16.15.36.21,0,.37-.13.43.41.59.26C35.54,39.67,35.06,39.7,35.14,40Zm-18-.74s-.13,0-.14-.07.07-.07,0-.07-.26,0-.35,0,.09.16.09.29-.07.07,0,.08,0-.09.13-.09.06.08.07,0-.17-.11-.08-.15C16.86,39.35,17.15,39.45,17.15,39.28Zm9.29.14c-.38-.18-.29.65-.06.3-.05,0-.13,0-.13-.07S26.44,39.56,26.44,39.42Zm2-.11c-.05,0-.07-.06-.07-.15s-.14.08-.26.07C28,39.46,28.47,39.43,28.45,39.31ZM30,39.4c-.09,0-.06-.13-.14-.15-.13.17,0,.08.07.22a.36.36,0,0,0-.2.23C30,39.75,30,39.57,30,39.4Z"/><path class="cls-1" d="M30.87,39.33a.52.52,0,0,1,.54-.08C31.33,38.88,30.73,39.15,30.87,39.33Z"/><path class="cls-1" d="M31.41,39.26h0Z"/><path class="cls-1" d="M38.26,40.11a.36.36,0,0,1-.06-.1.31.31,0,0,1,.3-.41h-.08a.08.08,0,0,1-.07-.08c.06-.08.11,0,.15,0s.07,0,0,0a.36.36,0,0,0-.22,0,.45.45,0,0,0-.24.36c0,.1,0,.12,0,.11s-.07-.07,0-.27a.51.51,0,0,1,.42-.35h.08l-.07,0a.31.31,0,0,1-.11-.08c0,.11,0,.28-.1.29s-.07-.06-.13-.08c0,.36.33.1.38.26-.17.1-.28-.06-.34,0,.19.07-.08.15,0,.3a1.6,1.6,0,0,0,.3-.13s.1-.08.1-.13,0,0-.08,0a.14.14,0,0,0,0,.13c0,.05,0,.06,0,.08S38.35,40.14,38.26,40.11Z"/><path class="cls-1" d="M6,27.24s2-.39,5.08-.7c1.52-.17,3.3-.32,5.21-.43.95,0,1.94-.12,2.94-.15l3-.09,3,0c1,0,2,0,2.94,0,1.91,0,3.69.12,5.22.23,3,.19,5.09.51,5.09.51s-2,.4-5.09.71c-1.52.17-3.3.31-5.2.42-.95.05-1.94.13-2.94.15l-3,.09-3,0c-1,0-2,0-2.94,0-1.9,0-3.69-.12-5.21-.23C8,27.56,6,27.24,6,27.24Z"/><path class="cls-1" d="M6.48,27.46c0-.2-.08-.3.16-.29-.07.21.09.31-.18.51.21.11.07-.24.28-.12,0,.09-.1.09-.09.21s.24.21.27,0c-.27-.29.4,0,.53.12,0-.47.79.11.77-.32.16.12.16.12.19.23,0-.08.08,0,.14,0,.1-.16-.16-.29,0-.3,0,.28.26,0,.25.17a.49.49,0,0,0-.21.14c.2.06.25-.06.41-.05,0,.08.1.18.13.08A.21.21,0,0,1,9,27.65c-.22-.1-.29,0-.4-.1.19,0,.08-.28.22-.29s-.06.25.19.31c0-.16.07-.23.21-.21.09-.5-.69-.15-.93-.21s0-.16-.13.07c-.27-.25-.16-.08-.34.05-.08-.18-.3,0-.39-.25-.14,0,.09.21-.15.21A.48.48,0,0,0,7.2,27c-.21.3.08.05,0,.31-.37-.24-.13.22-.37.27-.06-.19,0-.14,0-.38.09.09.16.09.21-.06S6.93,27,6.79,27C6.89,27.32,6.1,27,6.48,27.46Z"/><path class="cls-1" d="M9.33,27.14c.41,0,.32.2.6,0v.22c.14-.11.48,0,.48-.28,0,.3.25.13.11.53.23-.11.22-.2.41-.21,0-.11-.16-.07-.26-.09,0-.33.31-.29.61-.28-.14.17,0,.08.06.22.13,0,0-.34.28-.22,0,.08-.16.08-.14.23l.19.22c.24,0-.13-.25.07-.22a.5.5,0,0,0,.47.15.2.2,0,0,0-.13-.22c0-.17.24,0,.34-.08s-.12.1-.21.08c0,.17.23.14.2.37s-.29.09-.28.3.39-.28.2.08c.18-.09.17,0,.4,0a1.44,1.44,0,0,1-.25-.68c.14.05.14.12.06.23a.2.2,0,0,1,.33.08c.06-.06.27-.43,0-.38.07-.22.1-.08.27-.07,0,.16-.05.2-.07.3.13-.14.17,0,.33,0,.09-.41.19.12.27-.22.11,0,.46.28.41,0,.23.26.81,0,.73.31.24,0,.27-.2.33-.37.14,0,.22.16.34.22-.21-.37.31.26.33-.14.11.11.31.1.4.22.15,0-.08-.11.07-.22.2.1.24,0,.53,0,.09.29.14.28.35.52.19-.07-.05-.25,0-.38.34.12.76.14.93-.17.19.08.28.15.47.06,0,.06-.07.08-.06.15s.16-.16.33-.15c0,.12-.06.13-.06.22.21,0,.34-.3.4,0,.13,0,.08-.2.26-.16.11.32.7-.05.89.34,0-.23.14-.21.32-.39,0,.27.43-.1.28.22a4.71,4.71,0,0,1,2.22.11c.08,0,.05-.14.05-.23-.2-.1.16-.07.08.14.26-.14.51,0,.73-.27.39.39,1.39.25,1.81,0a.4.4,0,0,1,.08.29c.18-.11.43-.14.45-.41.16.22,0,.18.27.05.06.52,1.3,0,1.29.19.07,0,0-.08,0-.07,1.08.1,2-.32,3.08-.13,0-.07-.08-.05-.14-.06a5.86,5.86,0,0,1,2,0c0-.08,0-.26.3-.26a.4.4,0,0,0,0,.23.21.21,0,0,0,.1-.24A2.39,2.39,0,0,0,35,26.74c-.34.26.54.15.28.11.54.09,1.25-.54,1.82-.1a4.48,4.48,0,0,1,1.41-.33v.41c-.64-.13-1.37-.3-1.94-.37,0-.14.09-.16.09-.3-.17,0-.13.27-.23.36-.53-.23-.93.23-1.19-.37-.2.36-.79.14-.87,0-.1,0,0,.13.06.15-.23.33-.47-.24-.55.13-.71-.37-1.66-.07-2.47-.33.09.17-.36,0-.67-.08,0,.37-.85-.05-1.21-.09s-.65.16-1,.14c-.54,0-1.14-.26-1.62-.27-.69,0-1.31.36-1.8.27.06,0-.19-.36-.14,0-.32-.2-.79.11-1.08-.18-.25.25-.73.1-.94,0-2.14.27-4.18.34-6.25.44a47.28,47.28,0,0,0-6.38.76c-.7.16-1.42.36-2.14.5a8,8,0,0,1-1.07.14,4.43,4.43,0,0,1-.52,0l-.25,0H6.07s-.05,0-.14,0a.53.53,0,0,1-.23-.09c.08,0,.29,0,.35,0a.29.29,0,0,1,0-.09.18.18,0,0,1,.1-.11.5.5,0,0,1,.33,0,3.54,3.54,0,0,0,.84.09c1.09-.16,2.38-.88,3.53-.88.55-.5,1.31-.16,2-.32.15,0,.2-.08.17-.24.86-.13,1.74.13,2.51,0a6.1,6.1,0,0,1,1.06-.27s-.07.15-.05.16c.21.08,1.13-.4,1.55-.06.32-.35.86,0,1.26-.33a.51.51,0,0,1,.15.22c0-.1.28-.25.13-.09a17.08,17.08,0,0,1,2.49,0c.15-.11.25-.36.4-.1.22-.51,1.26,0,1.61-.21a.19.19,0,0,1-.2.15c.13.09.32,0,.48.14-.08-.09.29-.32.4,0,0-.34.42.09.4-.24.28-.21.42.29.62.28s.27-.51.47,0c.12,0,0-.25.12-.3.44.14.48,0,.81,0,0,.31.24-.08.08.22.28-.19.74,0,1.14.06-.1-.39.18-.05.2-.37a.7.7,0,0,1,.75.3c.16,0,0-.25-.07-.22.06-.18.17.2.41.07-.28.21.06,0,.06.3.22,0,.32-.4.34,0,.14,0,.09-.21.27-.15-.08.1,0,.12,0,.22,0-.12.41-.23.21-.37a1.43,1.43,0,0,1,1,.16c.13,0,.09-.2.27-.15.16.25.25.14.54.16,0,.13.08.16.06.3.2-.05-.06-.16,0-.3h.27c-.14.3.28-.09.19.3.54-.16.29-.31.74,0a3.35,3.35,0,0,1,1.82.15c.12-.32.39,0,.57-.34.2.06.75.14,1.33.33l0,.22c.15-.14.13.05.27.1.1-.23-.22-.08-.11-.31a1.38,1.38,0,0,0,1,.36l1.84.08-1.83.56a3.88,3.88,0,0,0-.6.25c-.15-.15-.48-.24-.53.1-.31-.31-.94.23-1.14-.24.06.11-.18.52-.31.2-.16.12-.2.1-.08.32-.17-.13-.3-.23-.14-.43-.31.4-1.09.69-1.46.31,0,.12-.35.22-.16.25.05.23-.22-.16-.19.1-.19-.16.27-.33.26-.57-.2.08-.15.37-.51.31,0,.07.09,0,.15.05,0,.25-.35.13-.36-.1l-.45.13c-.17,0-.2-.12-.36-.11s-.1.24-.32.26c.14,0-.31-.31-.34-.11,0-.12,0-.14.12-.16,0-.18-.25,0-.26.1-.2,0,.09-.12,0-.23s-.22.08-.25.18c-.19,0,.1-.29-.17-.28.07.32-.25-.14-.31.19.09.25.29-.1.29.19-.16-.06-.41,0-.55-.09,0,.07.07.13.15.14a1,1,0,0,1-1.1-.18c0,.07,0,.08-.06.09a.48.48,0,0,0,.21.12.9.9,0,0,1-.17.32c-.17-.05-.41-.25-.31-.41-.05,0-.06.08-.12.09.05.18.27.13.24.42-.34-.24-.36-.06-.37-.33-.35,0,0,.35-.26.18,0-.07,0-.07-.07-.07s.08-.07.13-.09-.23,0-.28-.12c.22.19-.43.58-.39.28-.07,0,0,.14,0,.23-.09-.15-.51.12-.43-.26-.2.43-.52,0-.79.29-.19-.3-.59,0-.63-.32-.14.18-.56.08-.62-.25-.4.51-.7-.08-1.39.48-.1,0-.81-.11-1,.15.13-.35-.23-.43-.37-.51,0,.19.12.29.29.28a6.39,6.39,0,0,0-.73.2c-.22-.08.06-.23.13-.08-.06-.23-.06-.14,0-.37,0,.17-.29.09-.26.31-.41-.13-.38,0-.61-.26-.14.44-.45-.13-.53.32-.06,0-.12-.08-.13,0-.23-.21-.61-.44-.67,0a.31.31,0,0,1-.22-.36c-.15,0-.14.19-.12.38a1.48,1.48,0,0,0-1.08-.11c.27-.39-.34,0-.15-.29-.14,0-.21.07-.19.23-.15-.26-.34,0-.54-.14,0,.27-.3.13-.2.23s-.16.07-.26.08c0-.19,0-.27-.21-.22a.18.18,0,0,1,.2-.15c0-.13-.38,0-.34.15-.16.06-.47-.33-.47,0-.1-.07-.21-.11-.2-.3.05,0,.06.07.13.07s-.07-.07-.07-.15-.15.14-.13.31c-.16-.15-.31.16-.34-.15a.22.22,0,0,0-.13.23,1,1,0,0,0-.74.08c-.08,0,0-.14-.07-.23a.19.19,0,0,0-.2.15c-.12,0,0-.25-.2-.23.07.18-.68.39-.74,0-.05.25,0,0-.33,0,0,.09.12.07.2.08-.14.24-.35-.06-.47-.08s.06.42-.21.3a.53.53,0,0,0,.07-.38c-.11-.14-.5.08-.6-.23-.16.33-.29.06-.47.15a1.72,1.72,0,0,0,.39.24.18.18,0,0,1-.26,0c0,.19.26.06.2.3-.32-.11-.88.11-1.08-.09l0,0c.33-.13-.08-.12,0,0l-.05,0a.85.85,0,0,1-.8-.3c0,.06,0,.07-.07.07s.14.14.27.15c-.13.22-.39,0-.33-.23-.13,0-.07.29-.28.22,0-.21.14-.15.15-.3-.21-.06-.09.26-.34.14,0,.07.08.06.13.08-.16.15-.24,0-.48.06,0-.23-.13-.3-.18-.46-.16.06.18.19.05.45-.07-.15-.15-.35-.21,0-.37.14-.43-.4-.59-.25C8.93,27.48,9.41,27.45,9.33,27.14Zm18,.74c.05,0,.13,0,.14.07s-.07.06,0,.07.26,0,.35.05c0-.15-.09-.16-.09-.3s.07-.06,0-.07-.05.09-.13.09-.06-.08-.07,0,.18.11.08.15C27.61,27.81,27.32,27.7,27.32,27.88ZM18,27.74c.38.18.29-.65.06-.31.05,0,.13,0,.13.08S18,27.59,18,27.74Zm-2,.11c.05,0,.08.06.07.15s.14-.08.26-.08C16.45,27.7,16,27.73,16,27.85Zm-1.55-.09c.09,0,.06.13.14.15.13-.17,0-.08-.07-.22a.36.36,0,0,0,.2-.23C14.52,27.41,14.5,27.59,14.47,27.76Z"/><path class="cls-1" d="M13.6,27.83a.57.57,0,0,1-.54.08C13.14,28.28,13.74,28,13.6,27.83Z"/><path class="cls-1" d="M13.06,27.9h0Z"/><path class="cls-1" d="M6.21,27a.27.27,0,0,1,.06.11.3.3,0,0,1,0,.29.32.32,0,0,1-.25.12h.08a.08.08,0,0,1,.07.08c-.06.08-.11,0-.15,0s-.07,0,0,0a.32.32,0,0,0,.22,0,.51.51,0,0,0,.25-.36c0-.1,0-.13,0-.12s.07.07,0,.27a.51.51,0,0,1-.42.36c-.08,0-.11,0-.13,0H6l.07,0a.23.23,0,0,1,.11.08c0-.11,0-.28.1-.3s.08.07.13.09c0-.36-.33-.1-.38-.26.17-.1.29.05.34,0-.19-.07.08-.16,0-.3a1.6,1.6,0,0,0-.3.13s-.1.07-.1.13,0,0,.08,0a.15.15,0,0,0,0-.13c0-.05,0-.06,0-.08S6.12,27,6.21,27Z"/><path class="cls-1" d="M37.51,13.32s-2,.4-5.08.71c-1.52.16-3.3.31-5.21.42-.95.05-1.93.12-2.94.15l-3,.09-3,0c-1,0-2,0-2.94,0-1.91,0-3.69-.12-5.22-.23C7,14.26,5,13.94,5,13.94s2-.4,5.09-.71c1.52-.16,3.3-.31,5.2-.42.95-.05,1.94-.13,2.94-.15l3-.09,3,0c1,0,2,0,2.94,0,1.9,0,3.69.12,5.21.23C35.47,13,37.51,13.32,37.51,13.32Z"/><path class="cls-1" d="M37,13.11c0,.19.09.3-.16.28.08-.21-.09-.31.19-.51-.21-.11-.08.24-.29.13,0-.1.1-.1.09-.22s-.24-.21-.27,0c.27.29-.4,0-.53-.12-.05.47-.79-.11-.77.31-.16-.11-.16-.12-.19-.23,0,.09-.08,0-.13,0-.11.16.15.29,0,.3,0-.28-.27,0-.26-.17a.57.57,0,0,0,.21-.13c-.2-.07-.25.06-.41,0s-.1-.19-.13-.09a.22.22,0,0,1,.12.24c.22.1.29,0,.4.09-.19,0-.08.28-.22.29s.06-.24-.18-.31c0,.16-.07.24-.22.21-.09.5.69.15.93.21s0,.16.13-.07c.27.26.16.08.34-.05.08.18.3,0,.39.26.14,0-.08-.21.15-.22a.59.59,0,0,0,.11.24c.21-.29-.07-.05,0-.31.37.24.13-.22.37-.27.07.19,0,.14,0,.38-.09-.09-.16-.09-.21.06s.12.12.26.1C36.58,13.24,37.37,13.59,37,13.11Z"/><path class="cls-1" d="M34.14,13.43c-.4,0-.32-.21-.6,0v-.23c-.14.12-.48,0-.48.28,0-.29-.25-.12-.11-.53-.22.12-.22.2-.41.21,0,.11.16.07.26.09,0,.34-.31.3-.61.28.14-.17,0-.08-.06-.22-.13,0,0,.34-.28.22.05-.07.16-.08.14-.22l-.19-.23c-.24,0,.14.25-.07.22a.56.56,0,0,0-.47-.15.22.22,0,0,0,.13.23c0,.16-.24,0-.34.07s.13-.1.21-.07c0-.18-.23-.15-.19-.38s.28-.09.27-.3-.39.29-.2-.07c-.18.08-.17,0-.4,0a1.35,1.35,0,0,1,.25.68c-.14,0-.14-.12-.06-.23a.2.2,0,0,1-.33-.07c-.06,0-.27.42,0,.37-.06.22-.1.08-.27.07s.05-.2.07-.3c-.13.14-.17,0-.33,0-.09.41-.19-.12-.27.22-.11,0-.46-.28-.4,0-.23-.25-.82,0-.74-.31-.24,0-.26.2-.33.38a2,2,0,0,1-.34-.23c.21.37-.3-.25-.33.15-.1-.11-.31-.11-.4-.23-.15,0,.08.11-.07.22-.2-.1-.23,0-.53,0-.09-.28-.14-.28-.35-.51-.19.07.05.24,0,.37-.34-.11-.76-.13-.93.17-.19-.08-.28-.15-.47-.06,0-.06.07-.08.06-.15s-.16.16-.33.16c0-.12.06-.13.06-.23-.21,0-.34.3-.4,0-.13,0-.08.21-.26.16-.11-.32-.7,0-.89-.34,0,.23-.14.21-.32.39,0-.27-.43.11-.27-.21A4.85,4.85,0,0,1,20.34,13c-.08,0-.05.15-.05.23.2.1-.16.07-.08-.14-.26.15-.51,0-.72.27a1.9,1.9,0,0,0-1.82,0,.46.46,0,0,1-.08-.29c-.18.11-.43.15-.45.41-.16-.22,0-.18-.27-.05-.06-.52-1.3,0-1.29-.19-.07,0,0,.08,0,.07-1.08-.1-2,.32-3.08.13,0,.07.08,0,.14.06a5.61,5.61,0,0,1-2,0c0,.08,0,.26-.3.26a.4.4,0,0,0,0-.23.2.2,0,0,0-.11.24,2.44,2.44,0,0,0-1.81.11c.34-.26-.54-.15-.28-.1-.54-.1-1.25.53-1.82.09A4.22,4.22,0,0,1,5,14.14v-.41c.64.14,1.37.3,1.94.38,0,.13-.09.15-.09.29.18,0,.13-.27.23-.36.53.24.93-.23,1.19.38.2-.37.79-.14.87,0,.1,0,0-.14-.06-.16.24-.33.47.24.55-.13.71.38,1.66.07,2.47.33-.09-.16.36,0,.67.09,0-.38.85,0,1.21.08s.65-.15,1-.14c.54,0,1.14.26,1.62.27.69,0,1.31-.35,1.8-.27-.06,0,.19.37.14,0,.32.21.79-.1,1.08.18.25-.24.73-.09.95,0,2.13-.27,4.17-.35,6.24-.45a44.27,44.27,0,0,0,6.38-.76c.7-.15,1.43-.36,2.14-.5a8,8,0,0,1,1.07-.14,4.51,4.51,0,0,1,.52,0h.47s.05,0,.14,0a.43.43,0,0,1,.23.09.52.52,0,0,0-.35,0,.2.2,0,0,1,0,.09.27.27,0,0,1-.09.12.6.6,0,0,1-.34,0,4.14,4.14,0,0,0-.84-.09c-1.08.16-2.38.88-3.53.89-.55.49-1.31.15-2,.31-.14,0-.2.08-.17.24-.86.13-1.74-.13-2.51,0a7.14,7.14,0,0,1-1.06.26s.07-.15.05-.16c-.21-.08-1.12.41-1.55.06-.32.35-.86,0-1.26.33A.51.51,0,0,1,24,14.9c0,.1-.28.25-.13.09a17.08,17.08,0,0,1-2.49,0c-.15.11-.25.36-.4.1-.21.51-1.26,0-1.61.22a.19.19,0,0,1,.2-.16c-.13-.09-.32.05-.48-.13.08.09-.29.31-.4,0,0,.34-.42-.09-.4.25-.28.2-.42-.3-.62-.29s-.27.51-.47,0c-.12,0,0,.26-.12.31-.44-.14-.47,0-.81,0,0-.31-.23.08-.08-.22-.28.19-.74,0-1.14-.06.1.4-.18,0-.2.38a.72.72,0,0,1-.75-.31c-.16,0,0,.25.07.23-.06.17-.17-.21-.41-.08.28-.21-.06,0-.06-.3-.22,0-.32.41-.34,0-.13,0-.09.21-.27.15.08-.1,0-.12,0-.22,0,.12-.41.23-.21.37a1.43,1.43,0,0,1-1-.16c-.13,0-.09.21-.27.15-.16-.25-.25-.14-.54-.15,0-.14-.08-.16-.06-.3-.2,0,.06.16,0,.3h-.27c.14-.29-.28.09-.19-.3-.53.16-.29.31-.74,0a3.46,3.46,0,0,1-1.82-.16c-.12.33-.38,0-.57.34-.2-.06-.75-.13-1.33-.32l0-.23c-.15.14-.13,0-.26-.1-.11.24.21.08.1.31a1.36,1.36,0,0,0-1-.36l-1.84-.08,1.83-.56a3.55,3.55,0,0,0,.6-.24c.15.14.48.23.53-.11.31.32.94-.23,1.14.24-.06-.11.18-.52.31-.2.16-.12.2-.1.08-.32.18.13.3.23.14.43.31-.39,1.09-.69,1.46-.31,0-.12.35-.21.16-.25-.05-.23.22.16.2-.1.18.16-.28.33-.27.57.2-.08.15-.36.51-.3,0-.07-.09,0-.15-.06,0-.25.35-.13.36.1l.45-.13c.17,0,.21.12.36.11s.1-.24.32-.26c-.14,0,.31.32.34.11,0,.12,0,.15-.12.17,0,.17.25,0,.26-.11.2,0-.09.13,0,.23a.27.27,0,0,0,.25-.18c.19.05-.1.29.17.28-.07-.31.25.15.31-.19s-.28.1-.29-.19c.16.06.41,0,.55.09,0-.06-.07-.13-.15-.13a1,1,0,0,1,1.1.17c0-.06,0-.07.06-.08a.42.42,0,0,0-.21-.13.9.9,0,0,1,.17-.32c.17.05.41.25.31.42,0,0,.06-.09.13-.1-.06-.17-.28-.12-.25-.42.34.24.36.07.37.33.35,0,0-.35.26-.18,0,.07,0,.07.07.07s-.08.07-.13.09.23,0,.28.12c-.22-.18.44-.57.39-.27.07,0,0-.15.05-.23.09.15.5-.13.42.25.2-.43.52,0,.79-.29.19.3.6-.05.63.32a.39.39,0,0,1,.62.25c.4-.51.7.08,1.39-.48.1,0,.81.11,1-.14-.13.34.22.42.36.5a.27.27,0,0,0-.29-.28c.25-.1.52-.07.73-.2.22.08-.06.23-.13.08a.5.5,0,0,1,0,.38c0-.18.29-.09.26-.32.42.13.38,0,.61.26.14-.44.45.13.53-.32.06.05.12.09.13,0,.23.2.61.43.67,0a.31.31,0,0,1,.22.36c.15,0,.14-.19.12-.38a1.38,1.38,0,0,0,1.08.11c-.27.39.34,0,.15.29.14,0,.21-.06.19-.23.15.26.34,0,.54.14,0-.26.31-.12.2-.23s.16-.06.27-.08c0,.2,0,.27.2.22a.19.19,0,0,1-.19.16c0,.13.37,0,.33-.16.17,0,.47.33.47,0,.1.06.21.1.21.29-.06,0-.07-.07-.14-.07s.07.07.07.15.15-.13.13-.3c.16.15.31-.17.34.14a.22.22,0,0,0,.13-.23.94.94,0,0,0,.74-.07c.08,0,.05.13.07.22a.18.18,0,0,0,.2-.15c.12,0,0,.25.2.23-.07-.17.68-.39.74,0,.05-.25,0,0,.33,0,0-.09-.12-.06-.2-.08.14-.24.35.06.47.08s-.06-.42.21-.3a.53.53,0,0,0-.07.38c.11.14.5-.08.6.23.16-.33.29-.06.47-.15a1.36,1.36,0,0,0-.39-.23.16.16,0,0,1,.26,0c0-.2-.26-.06-.2-.31.32.11.88-.11,1.08.09l0,0c-.33.13.08.12,0,0l.05,0a.82.82,0,0,1,.8.31c0-.07,0-.07.07-.08s-.14-.14-.27-.15c.13-.22.39,0,.33.23.13,0,.07-.29.28-.22,0,.21-.14.15-.15.3.21.06.1-.26.35-.14,0-.07-.08-.06-.14-.08.16-.15.24,0,.48-.06,0,.23.13.3.18.46.16,0-.18-.19-.05-.45.07.15.15.36.21,0,.37-.13.43.41.59.25C34.54,13.08,34.06,13.11,34.14,13.43Zm-18-.75s-.13,0-.14-.06.07-.07,0-.08c0,.14-.26,0-.35,0s.09.15.09.29-.07.07,0,.07.05-.09.13-.08.06.08.07,0-.17-.11-.08-.14S16.15,12.86,16.15,12.68Zm9.29.15c-.38-.18-.29.64-.06.3-.05,0-.13,0-.13-.07S25.44,13,25.44,12.83Zm2-.12c-.05,0-.07-.06-.07-.15s-.14.09-.26.08C27,12.86,27.47,12.83,27.45,12.71ZM29,12.8c-.09,0-.06-.13-.14-.15-.13.17,0,.08.07.23a.34.34,0,0,0-.2.22C29,13.15,29,13,29,12.8Z"/><path class="cls-1" d="M29.87,12.73a.57.57,0,0,1,.54-.08C30.33,12.29,29.73,12.55,29.87,12.73Z"/><path class="cls-1" d="M30.41,12.66h0Z"/><path class="cls-1" d="M37.26,13.52a.48.48,0,0,1-.06-.11.32.32,0,0,1,0-.29c.17-.15.23-.1.25-.11h-.08s-.07,0-.07-.07.11,0,.15,0,.07,0,0,0a.36.36,0,0,0-.22,0,.43.43,0,0,0-.24.35c0,.1,0,.13,0,.12s-.07-.07,0-.27a.53.53,0,0,1,.42-.36h.08l-.07,0a.3.3,0,0,1-.11-.07c0,.11,0,.27-.1.29s-.07-.07-.13-.09c0,.37.33.1.38.27-.17.09-.28-.06-.34,0,.19.07-.08.16,0,.3a1.14,1.14,0,0,0,.3-.13s.1-.07.1-.13a.07.07,0,0,0-.08,0,.17.17,0,0,0,0,.14s0,0,0,.07S37.35,13.55,37.26,13.52Z"/></svg>